<svg width="200" height="42" viewBox="0 0 200 42" fill="none" xmlns="http://www.w3.org/2000/svg">
<g clip-path="url(#clip0_4_19920)">
<path d="M196.627 32.6919C194.741 32.6919 193.234 34.1583 193.234 35.985C193.234 37.8117 194.741 39.3154 196.627 39.3154C198.513 39.3154 199.998 37.849 199.998 35.985C199.998 34.121 198.534 32.6919 196.627 32.6919ZM196.646 38.6133C195.161 38.6133 194.076 37.4483 194.076 35.985C194.076 34.5217 195.161 33.3567 196.627 33.3567C198.093 33.3567 199.156 34.5404 199.156 36.0067C199.156 37.4731 198.093 38.6164 196.646 38.6164V38.6133Z" fill="#202B2F"/>
<path d="M197.391 36.0843V36.0439C197.792 35.9227 198.071 35.6431 198.071 35.2797C198.071 34.9597 197.932 34.6987 197.751 34.5558C197.509 34.416 197.229 34.3135 196.608 34.3135C196.064 34.3135 195.645 34.3539 195.344 34.4129V37.706H196.108V36.3825H196.468C196.891 36.3825 197.09 36.5441 197.149 36.9045C197.251 37.2866 197.31 37.5879 197.41 37.706H198.233C198.152 37.5848 198.093 37.386 197.991 36.8827C197.891 36.4416 197.711 36.1992 197.388 36.0812L197.391 36.0843ZM196.487 35.842H196.127V34.8975C196.207 34.8758 196.347 34.8571 196.549 34.8571C197.031 34.8571 197.251 35.0591 197.251 35.3604C197.251 35.7022 196.91 35.842 196.487 35.842Z" fill="#202B2F"/>
<path d="M32.3252 16.3538C32.3252 11.7435 29.0756 8.87598 23.847 8.87598C15.5584 8.87908 0 16.155 0 22.6138C0 23.5862 0.35727 24.4468 1.00657 25.037C1.62791 25.6024 2.46983 25.8665 3.37698 25.7826L4.07288 25.7174L3.92065 25.0339C3.82745 24.6207 3.78707 24.2697 3.78396 23.9248C3.93308 17.6089 16.3537 12.1691 22.3931 12.1691C25.9378 12.1691 27.7335 13.9648 27.7335 17.5095C27.7335 25.385 19.5132 37.9205 12.6784 37.9205C11.7371 37.9205 11.1934 37.6378 11.1934 36.1839C11.1934 34.0651 12.958 30.1631 14.6636 26.3915C16.3288 22.707 17.9039 19.2306 17.9039 17.2579C17.9039 16.6583 17.6429 16.127 17.1521 15.7231C16.4469 15.1453 15.285 14.8968 14.2629 15.1018L13.7378 15.2074L13.7658 15.7418C13.8838 17.9134 12.0695 22.1074 10.3173 26.1617C8.4875 30.3961 6.75707 34.3944 6.75707 36.886C6.75707 39.7597 8.47818 41.4093 11.4793 41.4093C16.015 41.4093 21.1628 38.1908 25.6054 32.5832C29.7498 27.3515 32.3221 21.135 32.3221 16.36L32.3252 16.3538Z" fill="#202B2F"/>
<path d="M42.8237 27.625L43.3674 28.0009L43.706 27.4324C44.3522 26.3481 44.4454 25.295 43.9763 24.4655C43.5165 23.6577 42.5689 23.1948 41.376 23.1948C39.3846 23.1948 37.5982 24.4095 36.2623 26.606C35.9734 24.1983 34.8954 23.6453 33.9665 23.6453C33.0904 23.6453 32.2795 23.9777 31.6768 24.5773L31.2699 24.9812L31.6458 25.4161C32.438 26.3326 32.5467 28.2432 32.5467 30.1694C32.5467 31.3934 32.1926 32.8536 31.8508 34.2671C31.5153 35.6558 31.1953 36.9699 31.1953 38.079C31.1953 40.3966 33.4259 40.3966 34.2647 40.3966H34.8364L34.8799 39.825C35.2682 34.643 37.4273 26.9788 40.823 26.9788C41.5562 26.9788 42.193 27.1838 42.8237 27.6188V27.625Z" fill="#202B2F"/>
<path d="M44.2772 36.8892C44.2772 36.2026 44.0318 35.6185 43.544 35.1432C43.0625 34.6741 42.4753 34.438 41.7949 34.438C41.1146 34.438 40.5274 34.6772 40.0552 35.1494C39.583 35.6216 39.3438 36.2057 39.3438 36.8892C39.3438 37.5726 39.5861 38.1412 40.0614 38.6041C40.5336 39.0608 41.1146 39.2938 41.7949 39.2938C42.4753 39.2938 43.0718 39.0639 43.5471 38.6072C44.0287 38.1443 44.2741 37.5664 44.2741 36.8892H44.2772Z" fill="#202B2F"/>
<path d="M68.1144 22.8155C68.4655 22.2904 68.5276 21.7219 68.2915 21.1689L68.0088 20.5041L67.3968 20.8893C65.4706 22.1009 61.522 22.9708 57.9524 23.005C58.9559 19.1589 60.3166 15.5986 61.4848 13.7874L62.0222 12.9548L61.0405 12.8398C58.9745 12.5975 57.6946 13.2655 56.7626 15.0767C55.7653 17.0277 54.7525 19.7988 53.8951 22.9211C52.7705 22.8279 51.7577 22.5731 51.2295 22.2438L50.6082 21.8586L50.3317 22.5358C49.903 23.5797 49.903 24.3937 50.3286 25.0274C50.7791 25.7016 51.6583 26.0682 53.0625 26.1645C52.1118 29.8366 51.4874 33.7821 51.4874 36.1867C51.4874 37.5567 52.0435 38.672 53.0097 39.2468C53.4415 39.5046 53.9293 39.632 54.4294 39.632C54.9296 39.632 55.464 39.4984 55.9517 39.2312L56.4892 38.9361L56.1971 38.3955C55.9331 37.9078 55.7715 37.2243 55.7715 35.3323C55.7715 33.4404 56.3152 29.4141 57.1354 26.1831C60.1489 26.0992 66.6543 24.9964 68.1113 22.8186L68.1144 22.8155Z" fill="#202B2F"/>
<path d="M53.5465 16.2295L54.0312 15.6486C56.5756 12.5854 65.2153 11.3147 69.2758 11.3147C70.8819 11.3147 72.2489 11.3489 73.9793 11.7963L74.5602 11.9454L74.728 11.3707C74.8989 10.7804 74.8057 10.2212 74.4577 9.75517C73.5257 8.51249 71.0528 8.37891 70.0307 8.37891C65.5726 8.37891 52.7543 9.34509 52.3442 13.6323C52.2759 14.2319 52.5524 14.9806 53.0774 15.6393L53.5496 16.2295H53.5465Z" fill="#202B2F"/>
<path d="M78.7397 40.0018C79.8084 40.0018 80.9392 39.542 81.4301 38.9113L81.8371 38.3863L81.2841 38.0197C81.079 37.883 80.8584 37.4201 80.8584 36.5316C80.8584 35.5871 81.1443 33.4062 81.6941 31.0607C81.8774 30.2654 82.0856 29.4669 82.2875 28.6965C82.7038 27.1121 83.0611 25.7451 83.0611 24.8659C83.0611 24.4745 82.9089 24.1203 82.623 23.8438C82.0949 23.3343 81.1349 23.1013 79.768 23.1479L79.215 23.1666L79.1746 23.7195C78.8888 27.6713 73.1445 35.6369 71.2028 36.2737C71.1966 36.2116 71.1935 36.1339 71.1935 36.0314C71.1935 34.9378 71.7589 32.7663 72.3026 30.6661C72.8649 28.5008 73.3961 26.4566 73.3961 25.3195C73.3961 24.8659 73.2222 24.4589 72.8929 24.1421C72.0882 23.3716 70.5473 23.3157 69.6992 23.3499L69.0406 23.3778L69.112 24.0333C69.3264 26.0496 68.5901 28.9854 67.9377 31.5795C67.4064 33.6952 66.9062 35.6897 66.9062 37.1374C66.9062 38.7839 67.8724 39.806 69.4258 39.806C72.1162 39.806 74.9961 36.8578 76.8912 34.36C76.7358 35.292 76.6178 36.2147 76.6178 36.8857C76.6178 38.9548 77.3292 40.0049 78.7366 40.0049L78.7397 40.0018Z" fill="#202B2F"/>
<path d="M100.253 39.3214L100.663 38.9113L100.278 38.4764C100.001 38.1657 99.883 37.6593 99.883 36.7832C99.883 35.0777 100.43 32.9278 100.961 30.8494C101.436 28.9823 101.887 27.2177 101.887 25.9191C101.887 23.9992 100.896 22.8994 99.1685 22.8994C96.0524 22.8994 92.8991 26.3199 90.4293 29.7124C90.5101 29.2029 90.5971 28.6468 90.6903 28.0379L90.827 27.1742C92.0759 19.4914 94.1667 6.62961 97.4194 5.47081L98.1836 5.19742L97.7176 4.53259C97.1677 3.7497 96.3134 3.31787 95.3099 3.31787C91.1656 3.31787 89.1835 13.4675 87.1952 25.7296L87.1424 26.0651C86.344 30.9395 85.4399 36.4633 84.4613 38.175L84.1973 38.6379L84.6136 38.9673C85.3654 39.5606 86.6143 39.7564 87.5774 39.4302C88.3602 39.1661 88.9008 38.6007 89.0934 37.8488C89.985 34.6769 95.6921 26.6896 97.5747 26.4379C97.584 26.4845 97.5965 26.556 97.5965 26.6647C97.5965 27.6247 97.1802 29.3676 96.7359 31.216C96.1736 33.5678 95.5926 35.9972 95.5926 37.7805C95.5926 38.6286 96.0959 39.3245 96.972 39.688C97.407 39.8682 97.8947 39.9552 98.3638 39.9552C99.1187 39.9552 99.8333 39.7315 100.25 39.3183L100.253 39.3214Z" fill="#202B2F"/>
<path d="M104.656 38.0818C104.656 40.3994 106.887 40.3994 107.729 40.3994H108.3L108.344 39.8278C108.732 34.6458 110.891 26.9816 114.287 26.9816C115.02 26.9816 115.657 27.1866 116.288 27.6216L116.831 27.9975L117.17 27.4289C117.816 26.3447 117.909 25.2915 117.44 24.462C116.981 23.6543 116.033 23.1914 114.84 23.1914C112.849 23.1914 111.062 24.4061 109.726 26.5995C109.437 24.1918 108.359 23.6419 107.431 23.6419C106.554 23.6419 105.744 23.9743 105.141 24.5739L104.737 24.9809L105.113 25.4158C105.905 26.3323 106.014 28.2429 106.014 30.1691C106.014 31.3931 105.66 32.8532 105.318 34.2668C104.982 35.6555 104.662 36.9696 104.662 38.0787L104.656 38.0818Z" fill="#202B2F"/>
<path d="M140.134 36.833C140.134 35.5686 140.467 34.1457 140.818 32.6359C141.225 30.8899 141.685 28.914 141.685 26.8698C141.685 25.127 140.675 23.9992 139.115 23.9992C137.391 23.9992 135.288 25.7141 133.828 27.1556C133.088 27.8826 132.368 28.6841 131.725 29.4857C131.933 28.504 132.073 27.5502 132.026 26.817C132.026 25.1643 131.016 24.0987 129.457 24.0987C127.391 24.0987 124.946 26.466 123.175 28.7525C123.47 27.37 123.716 25.9347 123.716 25.0648C123.716 24.2695 123.368 23.6327 122.737 23.2723C121.861 22.7721 120.531 22.8777 119.428 23.5332L118.916 23.8377L119.198 24.3596C119.422 24.7728 119.422 25.5526 119.422 26.0683C119.422 27.7677 118.779 30.1257 118.158 32.4029C117.598 34.4502 117.07 36.3794 117.07 37.6842C117.07 38.7654 117.62 40.0547 120.239 40.0547H120.808L120.854 39.4861C121.177 35.4257 126.148 28.417 127.764 27.6962C127.86 28.7307 127.024 32.0798 126.651 33.5741C126.188 35.3667 125.881 36.6932 125.881 37.3332C125.881 38.753 126.965 39.6384 128.779 39.7005L129.398 39.7222L129.419 39.104C129.513 36.2924 135.524 28.3859 137.481 27.7304C137.537 28.4418 137.124 30.3773 136.81 31.8281C136.385 33.8133 135.944 35.8637 135.944 37.3332C135.944 39.7036 137.096 40.2038 138.062 40.2038C138.907 40.2038 139.979 39.7937 140.501 39.2718L140.914 38.8617L140.526 38.4268C140.271 38.1409 140.131 37.5755 140.131 36.8361L140.134 36.833Z" fill="#202B2F"/>
<path d="M154.121 35.034C154.121 38.1532 155.714 39.5512 157.289 39.5512C158.34 39.5512 159.169 39.1038 159.756 38.2246L160.123 37.6747L159.548 37.3454C158.613 36.8111 158.156 35.6088 158.156 33.6733C158.156 31.7378 158.697 29.675 159.57 28.2366L159.908 27.6774L159.331 27.3698C158.523 26.9442 157.759 26.8448 157.053 27.0778C156.227 27.3481 155.531 28.0626 154.994 29.1748C153.391 32.151 149.933 36.2581 149.029 36.2612C148.901 36.2612 148.746 36.2612 148.746 35.6274C148.746 31.5701 152.946 26.1302 157.24 26.1302C158.806 26.1302 160.117 26.9504 160.561 27.7209L160.84 28.2086L161.353 27.9756C162.114 27.6308 162.667 26.7609 162.667 25.9128C162.667 24.2289 160.893 23.1416 158.144 23.1416C150.508 23.1416 144.359 30.4921 144.359 36.575C144.359 38.6844 145.496 39.896 147.482 39.896C149.653 39.896 152.372 37.2491 154.124 35.0278L154.121 35.034Z" fill="#202B2F"/>
<path d="M194.101 26.8139C193.156 11.5227 186.483 4.11948 173.5 0C177.259 17.82 190.798 9.71154 194.101 26.8139Z" fill="#8DC059"/>
<path d="M179.921 16.6022C178.05 16.5774 176.27 16.9595 174.664 17.6709C175.186 17.6181 175.717 17.5901 176.255 17.5995C183.745 17.6989 189.738 23.8501 189.638 31.3404C189.595 34.6366 188.377 37.6408 186.392 39.9677C189.933 37.7713 192.319 33.8724 192.375 29.3956C192.469 22.4242 186.892 16.6985 179.921 16.6053V16.6022Z" fill="#8DC059"/>
<path d="M175.311 27.0032L175.389 27.0343C175.414 27.8016 175.016 29.6501 174.715 31.0512C174.289 33.0333 173.848 35.0868 173.848 36.5532C173.848 38.9236 175.001 39.4238 175.967 39.4238C176.812 39.4238 177.884 39.0137 178.406 38.4918L178.819 38.0786L178.43 37.6436C178.176 37.3578 178.036 36.7924 178.036 36.0499C178.036 34.7886 178.368 33.3626 178.719 31.8528C179.126 30.1068 179.589 28.1309 179.589 26.0867C179.589 24.3439 178.58 23.2192 177.02 23.2192C176.24 23.2192 175.38 23.5796 174.547 24.0922C172.736 25.0584 171.002 27.0715 169.673 28.9294C169.924 27.7737 170.101 26.6925 170.101 26.0184C170.101 25.2914 169.778 24.7011 169.194 24.3563C168.355 23.8592 167.072 23.9493 165.932 24.5769L165.385 24.8782L165.696 25.4219C165.814 25.63 165.966 26.3042 165.966 26.7671C165.966 28.3857 165.308 30.7809 164.727 32.8935C164.211 34.7731 163.764 36.3979 163.764 37.4324C163.764 38.15 164.13 39.3523 166.585 39.3523H167.088L167.187 38.8584C167.659 36.5346 170.076 32.6077 172.161 29.8986L172.932 29.0598C174.106 27.7799 174.886 27.2082 175.311 27.0032Z" fill="#202B2F"/>
</g>
<defs>
<clipPath id="clip0_4_19920">
<rect width="200" height="41.403" fill="white"/>
</clipPath>
</defs>
</svg>
